<svg width="260" height="54" viewBox="0 0 129 27" fill="none" xmlns="http://www.w3.org/2000/svg">
<g clip-path="url(#clip0_dark)">
<path d="M6.82566 22.7304C5.78496 22.7304 4.85653 22.5671 4.0403 22.2406C3.24452 21.8938 2.56087 21.455 1.98956 20.9245C1.43862 20.394 0.999889 19.8225 0.673365 19.2105C0.346899 18.5982 0.122424 18.0065 0 17.4351L3.67303 16.0578C3.89745 16.9556 4.275 17.6596 4.8055 18.1698C5.35644 18.6595 6.05025 18.9044 6.8869 18.9044C7.49908 18.9044 8.08062 18.7615 8.63155 18.4758C9.1825 18.1901 9.62123 17.731 9.94775 17.0985C10.2946 16.4659 10.4681 15.6496 10.4681 14.6498V0.875977H14.6308V15.8741C14.6308 16.9352 14.4369 17.8942 14.0493 18.7512C13.6615 19.5879 13.1105 20.3021 12.3964 20.8939C11.7027 21.4857 10.8762 21.9447 9.91711 22.2712C8.97845 22.5773 7.94797 22.7304 6.82566 22.7304Z" fill="#FFFFFF"/>
<path fill-rule="evenodd" clip-rule="evenodd" d="M61.4823 15.2323V22.3335H57.2891V0.90758H60.9926L65.2472 0.87693C66.7572 0.856555 68.0937 1.16265 69.2568 1.7952C70.42 2.40738 71.328 3.2542 71.9811 4.33571C72.634 5.39678 72.9605 6.63136 72.9605 8.03933C72.9605 9.42693 72.6441 10.6614 72.0117 11.743C71.3791 12.8244 70.5118 13.6815 69.41 14.314C68.308 14.9262 67.0327 15.2323 65.5839 15.2323H61.4823ZM61.4823 11.3756H65.492C66.4307 11.3756 67.1959 11.0695 67.7877 10.4574C68.3998 9.84522 68.706 9.03922 68.706 8.03933C68.706 7.38634 68.553 6.81496 68.2468 6.32527C67.9407 5.81514 67.5224 5.41722 66.9919 5.13149C66.4613 4.84584 65.8491 4.7132 65.1554 4.73363H61.4823V11.3756Z" fill="#FFFFFF"/>
<path d="M52.1088 22.7006C50.4151 22.7006 49.1296 22.2823 48.2521 21.4457C47.395 20.609 46.9666 19.4153 46.9666 17.8645V2.25419H51.0068V7.02911H54.8329V10.4573H51.0068V16.9768C51.0068 17.6298 51.1497 18.1297 51.4354 18.4767C51.721 18.8032 52.1394 18.9664 52.6903 18.9664C52.8943 18.9664 53.1188 18.9256 53.3638 18.844C53.4749 18.7977 53.5882 18.7429 53.7036 18.6797C53.8424 18.6038 53.9841 18.5157 54.1289 18.4154L55.5369 21.4457C55.0472 21.8129 54.4962 22.1088 53.8841 22.3334C53.2923 22.5782 52.7005 22.7006 52.1088 22.7006Z" fill="#FFFFFF"/>
<path d="M35.9107 22.2722C36.7678 22.5579 37.6861 22.7007 38.6655 22.7007C39.8694 22.7007 40.9305 22.5068 41.8488 22.1192C42.7874 21.7314 43.5221 21.1907 44.0526 20.4969C44.6036 19.7828 44.879 18.9665 44.879 18.0482C44.879 17.4157 44.7361 16.7729 44.4504 16.12C44.1852 15.4465 43.7465 14.8445 43.1343 14.314C42.5222 13.7631 41.7161 13.3651 40.7162 13.1203L38.7268 12.6306C38.2165 12.5081 37.8186 12.3653 37.5329 12.202C37.2473 12.0184 37.1044 11.7939 37.1044 11.5287C37.1044 11.141 37.2473 10.8349 37.5329 10.6104C37.8391 10.3859 38.2573 10.2737 38.7879 10.2737C39.3388 10.2737 39.8898 10.3961 40.4408 10.641C40.9918 10.8655 41.3386 11.1818 41.4815 11.5899L44.8177 10.0595C44.5933 9.38604 44.1852 8.79429 43.5934 8.28416C43.0016 7.77403 42.2875 7.3761 41.4509 7.09044C40.6346 6.80473 39.747 6.66193 38.7879 6.66193C36.931 6.66193 35.4925 7.09044 34.4721 7.94747C33.4519 8.80451 32.9417 10.0187 32.9417 11.5899C32.9417 12.6918 33.36 13.6713 34.1967 14.5283C35.0537 15.3649 36.227 15.9771 37.7166 16.3648L39.1246 16.7321C39.6143 16.8545 40.0021 17.0075 40.2878 17.1912C40.5938 17.3545 40.7468 17.6198 40.7468 17.987C40.7468 18.3339 40.5632 18.5992 40.1959 18.7829C39.8286 18.9665 39.3184 19.0584 38.6655 19.0584C37.9717 19.0584 37.3595 18.8849 36.829 18.5381C36.2984 18.1911 35.8801 17.783 35.5741 17.3137L32.1153 18.9053C32.4826 19.7215 32.9927 20.4153 33.6457 20.9866C34.2986 21.5376 35.0537 21.9662 35.9107 22.2722Z" fill="#FFFFFF"/>
<path d="M26.6942 20.3061L26.8705 22.3336H30.6659V7.0293H26.6256V15.0488C26.6256 16.3139 26.3501 17.2832 25.7993 17.9565C25.2482 18.6096 24.4422 18.9258 23.3811 18.9055C22.8302 18.9055 22.3302 18.783 21.8813 18.5382C21.4528 18.2729 21.1161 17.8545 20.8712 17.2832C20.6467 16.6914 20.5345 15.8853 20.5345 14.8651V7.0293H16.4942V15.7834C16.4942 18.13 16.9839 19.8747 17.9635 21.0174C18.9634 22.1398 20.3815 22.7009 22.218 22.7009C23.3811 22.7009 24.3912 22.405 25.2482 21.8132C25.8155 21.4174 26.2974 20.915 26.6942 20.3061Z" fill="#FFFFFF"/>
<path fill-rule="evenodd" clip-rule="evenodd" d="M82.9627 22.3335L82.9429 20.6576C82.9072 20.7167 82.8705 20.7747 82.833 20.8316L82.8121 20.863C82.7912 20.8943 82.7699 20.9254 82.7484 20.9561C81.9527 22.1192 80.6467 22.7007 78.8306 22.7007C76.9941 22.7007 75.5657 22.2927 74.5454 21.4763C73.5455 20.6602 73.0456 19.5073 73.0456 18.0177C73.0456 16.3853 73.5863 15.1609 74.6678 14.3447C75.7698 13.508 77.3104 13.0897 79.2897 13.0897H82.7605C82.7116 12.7914 82.6464 12.5159 82.5648 12.2633C82.3811 11.6103 82.0751 11.1205 81.6466 10.7941C81.2385 10.4472 80.6875 10.2737 79.9937 10.2737C79.3816 10.2737 78.8306 10.4064 78.3409 10.6716C77.8512 10.9369 77.4328 11.3654 77.0859 11.9572L73.4741 10.7328C73.7598 10.0798 74.168 9.44728 74.6985 8.8351C75.2495 8.20254 75.9636 7.68219 76.841 7.27411C77.7389 6.86597 78.8204 6.66193 80.0855 6.66193C81.616 6.66193 82.8913 6.93737 83.9116 7.48836C84.9319 8.0393 85.6971 8.85553 86.2072 9.93704C86.7173 10.9981 86.9724 12.3041 86.9724 13.855V22.3335H82.9627ZM82.8403 16.0894H80.6977C79.3713 16.0894 78.4531 16.2526 77.9429 16.5791C77.4328 16.8851 77.1778 17.3239 77.1778 17.8952C77.1778 18.3441 77.3818 18.7013 77.7899 18.9665C78.198 19.2114 78.7693 19.3338 79.504 19.3338C80.157 19.3338 80.7283 19.1808 81.218 18.8747C81.7282 18.5482 82.1262 18.1401 82.4117 17.6504C82.6975 17.1402 82.8403 16.6199 82.8403 16.0894Z" fill="#FFFFFF"/>
<path d="M89.2073 7.0293V22.3336H93.2476V7.0293H89.2073Z" fill="#FFFFFF"/>
<path fill-rule="evenodd" clip-rule="evenodd" d="M106.645 22.3336L106.486 20.2217C106.099 20.8238 105.631 21.3237 105.084 21.7214C104.207 22.3744 103.125 22.7009 101.84 22.7009C100.432 22.7009 99.2076 22.3744 98.1669 21.7214C97.1466 21.0684 96.3508 20.14 95.7794 18.936C95.208 17.7321 94.9223 16.3139 94.9223 14.6814C94.9223 13.0287 95.208 11.6104 95.7794 10.4268C96.3508 9.22291 97.1466 8.29448 98.1669 7.64149C99.2076 6.98851 100.432 6.66204 101.84 6.66204C103.125 6.66204 104.207 6.98851 105.084 7.64149C105.605 8.02051 106.054 8.49228 106.431 9.05683V0.907666H110.472V22.3336H106.645ZM106.003 16.9158C106.23 16.4314 106.373 15.8965 106.431 15.311V14.0519C106.373 13.4665 106.23 12.9314 106.003 12.447C105.697 11.794 105.268 11.2941 104.717 10.9472C104.186 10.5799 103.564 10.3963 102.85 10.3963C102.115 10.3963 101.473 10.5799 100.922 10.9472C100.371 11.2941 99.9319 11.794 99.6054 12.447C99.279 13.1 99.1157 13.8448 99.1157 14.6814C99.1157 15.518 99.279 16.2628 99.6054 16.9158C99.9319 17.5689 100.371 18.0789 100.922 18.4463C101.493 18.8136 102.146 18.9972 102.881 18.9972C103.574 18.9972 104.186 18.8136 104.717 18.4463C105.268 18.0789 105.697 17.5689 106.003 16.9158Z" fill="#FFFFFF"/>
</g>

<g transform-origin="121.066 19.0588">
  <path d="M125.131 19.0588C125.131 21.304 123.311 23.124 121.066 23.124C118.82 23.124 117 21.304 117 19.0588C117 16.8137 118.82 14.9937 121.066 14.9937C123.311 14.9937 125.131 16.8137 125.131 19.0588Z" fill="#F5A623"/>
  <path d="M121.065 13.4937C124.139 13.4937 126.631 15.9854 126.631 19.0591C126.631 22.1327 124.139 24.6235 121.065 24.6235C117.992 24.6235 115.5 22.1327 115.5 19.0591C115.5 15.9854 117.992 13.4937 121.065 13.4937Z" stroke="#F7C97A" stroke-opacity="0.5" stroke-width="3"/>
</g>

<defs>
<clipPath id="clip0_dark">
<rect width="110.472" height="21.8545" fill="white" transform="translate(0 0.875977)"/>
</clipPath>
</defs>
</svg>
